HIERARCHY
ROOT Hips
{
	OFFSET 88.192772 91.744102 380.619385
	CHANNELS 6 Xposition Yposition Zposition Zrotation Yrotation Xrotation 
	JOINT LeftUpLeg
	{
		OFFSET 0.103456 1.857832 10.548506
		CHANNELS 3 Zrotation Yrotation Xrotation
		JOINT LeftLeg
		{
			OFFSET 43.499996 -0.000050 0.000004
			CHANNELS 3 Zrotation Yrotation Xrotation
			JOINT LeftFoot
			{
				OFFSET 42.372196 0.000023 -0.000001
				CHANNELS 3 Zrotation Yrotation Xrotation
				JOINT LeftToe
				{
					OFFSET 17.299999 -0.000001 0.000005
					CHANNELS 3 Zrotation Yrotation Xrotation
					End Site
					{
						OFFSET 0.000000 0.000000 0.000000
					}
				}
			}
		}
	}
	JOINT RightUpLeg
	{
		OFFSET 0.103461 1.857838 -10.548502
		CHANNELS 3 Zrotation Yrotation Xrotation
		JOINT RightLeg
		{
			OFFSET 43.500053 -0.000023 0.000017
			CHANNELS 3 Zrotation Yrotation Xrotation
			JOINT RightFoot
			{
				OFFSET 42.372261 -0.000019 0.000013
				CHANNELS 3 Zrotation Yrotation Xrotation
				JOINT RightToe
				{
					OFFSET 17.299999 -0.000002 0.000004
					CHANNELS 3 Zrotation Yrotation Xrotation
					End Site
					{
						OFFSET 0.000000 0.000000 0.000000
					}
				}
			}
		}
	}
	JOINT Spine
	{
		OFFSET 6.901962 -2.603720 0.000005
		CHANNELS 3 Zrotation Yrotation Xrotation
		JOINT Spine1
		{
			OFFSET 12.588104 -0.000017 -0.000004
			CHANNELS 3 Zrotation Yrotation Xrotation
			JOINT Spine2
			{
				OFFSET 12.343203 0.000008 0.000001
				CHANNELS 3 Zrotation Yrotation Xrotation
				JOINT Neck
				{
					OFFSET 25.832893 0.000002 -0.000003
					CHANNELS 3 Zrotation Yrotation Xrotation
					JOINT Head
					{
						OFFSET 11.766610 0.000004 -0.000002
						CHANNELS 3 Zrotation Yrotation Xrotation
						End Site
						{
							OFFSET 0.000000 0.000000 0.000000
						}
					}
				}
				JOINT LeftShoulder
				{
					OFFSET 19.745901 -1.480358 6.000100
					CHANNELS 3 Zrotation Yrotation Xrotation
					JOINT LeftArm
					{
						OFFSET 11.284128 -0.000004 -0.000015
						CHANNELS 3 Zrotation Yrotation Xrotation
						JOINT LeftForeArm
						{
							OFFSET 33.000053 0.000025 0.000029
							CHANNELS 3 Zrotation Yrotation Xrotation
							JOINT LeftHand
							{
								OFFSET 25.200005 0.000009 -0.000002
								CHANNELS 3 Zrotation Yrotation Xrotation
								End Site
								{
									OFFSET 0.000000 0.000000 0.000000
								}
							}
						}
					}
				}
				JOINT RightShoulder
				{
					OFFSET 19.746098 -1.480389 -6.000077
					CHANNELS 3 Zrotation Yrotation Xrotation
					JOINT RightArm
					{
						OFFSET 11.284138 -0.000023 -0.000010
						CHANNELS 3 Zrotation Yrotation Xrotation
						JOINT RightForeArm
						{
							OFFSET 33.000103 0.000022 0.000003
							CHANNELS 3 Zrotation Yrotation Xrotation
							JOINT RightHand
							{
								OFFSET 25.199776 0.000131 0.000429
								CHANNELS 3 Zrotation Yrotation Xrotation
								End Site
								{
									OFFSET 0.000000 0.000000 0.000000
								}
							}
						}
					}
				}
			}
		}
	}
}
MOTION
Frames: 7
Frame Time: 0.033333
146.677994 96.661919 -299.341187 69.839354 -50.90179 80.899998 111.257867 -22.33681 -175.392291 -28.167377 -3.668924 -10.182093 79.717563 7.547438 1.177346 21.454557 0.003116 1.8e-05 -160.567475 10.220395 -157.015927 -13.896502 2.013352 0.796165 62.226978 10.084065 25.425598 21.454555 -0.003094 5e-06 11.976861 -2.865748 3.570561 13.788222 -6.136628 6.782346 13.47058 -6.095798 6.819152 -15.162381 2.472794 6.065702 -37.712702 1.760021 6.23134 138.39276 -82.750371 40.493535 7.421474 9.165422 -10.336971 -25.917628 -25.451102 1.846202 18.677653 -9.859282 -34.437667 131.288626 80.109185 -47.846807 10.9482 -27.957848 0.910609 -11.86966 17.441332 -1.140823 15.48423 4.743019 41.631198 
146.661102 96.644524 -299.364685 69.716499 -50.845263 80.975192 111.294196 -22.400405 -175.421401 -28.184031 -3.604824 -10.073018 79.830677 7.45879 1.122001 21.454558 0.003111 1.7e-05 -160.679927 10.216792 -156.934743 -13.965752 2.032394 0.860708 62.195798 10.000357 25.329325 21.454545 -0.00309 2e-06 11.973721 -2.859001 3.586776 13.779838 -6.124902 6.815715 13.46223 -6.083851 6.852452 -15.04713 2.557508 6.067226 -37.669811 1.76102 6.269566 138.554007 -82.782323 40.328671 7.468283 9.157813 -10.479458 -25.879148 -25.38958 1.846097 18.751203 -9.833547 -34.491014 131.682782 80.044476 -47.454901 10.712139 -27.896929 0.986073 -11.792453 17.359395 -1.141403 15.283163 4.518936 41.462602 
146.645004 96.620667 -299.383789 69.663094 -50.79778 81.033508 111.255066 -22.511904 -175.721547 -28.342713 -3.554156 -9.717565 79.958941 7.186229 1.014749 21.454557 0.00311 1.6e-05 -160.77499 10.294599 -157.007771 -14.012644 2.071055 0.748315 62.159045 10.151428 25.457778 21.454557 -0.003092 2e-06 11.972566 -2.857166 3.590663 13.768792 -6.1214 6.823993 13.451187 -6.080323 6.860704 -14.884808 2.566968 6.089311 -37.702631 1.815877 6.262898 138.863005 -82.75113 40.019929 7.557486 9.093844 -10.54764 -25.846892 -25.36082 1.845943 18.962403 -9.802272 -34.507338 131.936333 79.995626 -47.203376 10.51542 -27.889602 1.078628 -11.74691 17.289733 -1.141941 15.141339 4.391296 41.265913 
146.6306 96.615723 -299.402802 69.592183 -50.72607 81.108619 111.253796 -22.703001 -175.872385 -28.447261 -3.703857 -9.411456 80.028937 6.941227 0.872835 21.454557 0.003098 1.6e-05 -160.831216 10.292791 -157.14529 -13.996524 2.113529 0.83301 62.178695 10.151276 25.620806 21.454553 -0.003093 5e-06 11.975553 -2.848675 3.593214 13.774912 -6.105145 6.832856 13.457322 -6.064007 6.869464 -14.77701 2.537885 6.112765 -37.658542 1.875956 6.238311 139.132934 -82.742797 39.748638 7.583239 9.116233 -10.631511 -25.815499 -25.366184 1.845748 18.895662 -9.756353 -34.716636 131.883385 79.986078 -47.257495 10.36214 -27.954711 1.258703 -11.756239 17.24603 -1.142416 15.045512 4.360979 41.109529 
146.611099 96.646393 -299.423309 69.51716 -50.636212 81.197822 111.364267 -22.826801 -175.958992 -28.368467 -3.808052 -9.234973 80.00551 6.787043 0.725169 21.454563 0.003109 2e-05 -160.853373 10.250102 -157.192624 -13.949541 2.140831 0.918507 62.241861 10.172697 25.861456 21.454551 -0.003093 5e-06 11.98642 -2.83631 3.596565 13.797121 -6.081342 6.837339 13.479552 -6.040169 6.873804 -14.714539 2.528109 6.140882 -37.585469 1.895436 6.251448 139.312008 -82.774523 39.565862 7.525167 9.22481 -10.64891 -25.756642 -25.391314 1.845513 18.728519 -9.729124 -34.778104 131.589263 79.977793 -47.554772 10.256252 -28.001762 1.374283 -11.74714 17.211841 -1.142805 15.01855 4.177244 41.003261 
146.580307 96.690666 -299.441101 69.397953 -50.547235 81.304898 111.508302 -22.84241 -175.943078 -28.221532 -3.731134 -9.218583 79.945711 6.732403 0.533342 21.454557 0.003105 1.5e-05 -160.850258 10.160522 -157.203812 -13.876998 2.167856 0.951609 62.310327 10.220097 26.073033 21.454551 -0.00309 9e-06 11.997222 -2.818428 3.603624 13.819141 -6.04716 6.852834 13.501609 -6.005912 6.889094 -14.752169 2.548777 6.16513 -37.408488 1.893886 6.287494 138.959065 -82.77287 39.921523 7.535478 9.376969 -10.552559 -25.668898 -25.40642 1.845243 18.502048 -9.650969 -34.800674 131.151011 79.964262 -47.997655 10.198692 -28.010242 1.410502 -11.710922 17.183627 -1.143086 14.96373 4.050716 41.060399 
146.547806 96.726158 -299.450012 69.251964 -50.475781 81.407495 111.638445 -22.878909 -175.774276 -28.064916 -3.73384 -9.304336 79.910024 6.780795 0.477958 21.454557 0.00311 1.7e-05 -160.822664 10.082698 -157.206598 -13.827434 2.199956 0.863268 62.374626 10.33874 26.232277 21.454539 -0.003091 -5e-06 12.001125 -2.796581 3.61569 13.827259 -6.005306 6.879175 13.509779 -5.963896 6.915176 -14.840889 2.585686 6.185103 -37.220091 1.881335 6.333013 138.393826 -82.737906 40.493415 7.602005 9.527688 -10.38516 -25.63934 -25.439721 1.844953 18.398359 -9.521942 -34.98984 130.789011 79.977636 -48.361376 10.133798 -27.990484 1.43532 -11.673768 17.19531 -1.143234 14.844749 3.979748 41.177513 
